<?xml version="1.0" encoding="utf-8"?>
<!-- Generator: Adobe Illustrator 21.0.0, SVG Export Plug-In . SVG Version: 6.00 Build 0)  -->
<svg version="1.1" id="Layer_1" xmlns="http://www.w3.org/2000/svg" xmlns:xlink="http://www.w3.org/1999/xlink" x="0px" y="0px"
	 viewBox="0 0 250 483.8" style="enable-background:new 0 0 250 483.8;" xml:space="preserve">
<style type="text/css">
	.st0{fill:#0000FF;}
</style>
<title>header</title>
<path class="st0" d="M74.8,164.9H88c1.8,0,3.2,1.5,3.2,3.2v60.3c0,1.8-1.5,3.2-3.2,3.2H74.8c-1.8,0-3.2-1.5-3.2-3.2v-60.3
	C71.5,166.3,73,164.9,74.8,164.9z"/>
<path class="st0" d="M147.8,306.5c0.4,1.3,1.7,2.2,3.1,2.2h14.9c1.4,0,2.6-0.9,3.1-2.2l20-60.3c0.6-1.7-0.4-3.5-2.1-4.1
	c-0.3-0.1-0.7-0.2-1-0.2h-13.7c-1.4,0-2.7,0.9-3.1,2.2l-10.6,32.9L148,244.3c-0.4-1.3-1.7-2.3-3.1-2.3h-13.6c-1.8,0-3.2,1.5-3.2,3.3
	c0,0.3,0.1,0.7,0.2,1L147.8,306.5z"/>
<path class="st0" d="M247.6,236.1L13.9,2.4c-3.2-3.2-8.3-3.2-11.5,0C0.9,3.9,0,6,0,8.1v233.8c0,2.2,0.9,4.2,2.4,5.7l233.8,233.8
	c3.2,3.2,8.3,3.2,11.5,0c1.5-1.5,2.4-3.6,2.4-5.7V241.9C250,239.7,249.1,237.7,247.6,236.1z M233.8,456.1L16.2,238.5V27.7
	l217.5,217.5V456.1z"/>
</svg>
