<svg id="Layer_1" data-name="Layer 1" xmlns="http://www.w3.org/2000/svg" viewBox="0 0 250 483.77"><defs><style>.cls-1{fill:lime;}</style></defs><title>header</title><rect class="cls-1" x="71.53" y="164.89" width="19.74" height="66.76" rx="3.25" ry="3.25"/><path class="cls-1" d="M157.77,314.66a3.25,3.25,0,0,0,3.09,2.25H175.8a3.25,3.25,0,0,0,3.08-2.22l20-60.27a3.25,3.25,0,0,0-3.08-4.27H182.13A3.25,3.25,0,0,0,179,252.4l-10.56,32.94L158,252.41a3.25,3.25,0,0,0-3.09-2.27H141.36a3.25,3.25,0,0,0-3.09,4.25Z" transform="translate(-10 -8.12)"/><path class="cls-1" d="M257.62,244.26L23.86,10.49A8.12,8.12,0,0,0,10,16.23V250a8.12,8.12,0,0,0,2.38,5.74L246.14,489.51A8.12,8.12,0,0,0,260,483.77V250A8.12,8.12,0,0,0,257.62,244.26ZM243.77,464.17L26.23,246.64V35.83L243.77,253.36V464.17Z" transform="translate(-10 -8.12)"/></svg>